<svg width="210" height="210" viewBox="0 0 210 210" fill="none" xmlns="http://www.w3.org/2000/svg">
<path d="M206.557 0H3.44262C1.54131 0 0 2.31577 0 5.17241V204.828C0 207.684 1.54131 210 3.44262 210H206.557C208.459 210 210 207.684 210 204.828V5.17241C210 2.31577 208.459 0 206.557 0Z" fill="#F5F5F5"/>
<path d="M140 71.5H70C69.1716 71.5 68.5 72.1716 68.5 73V130C68.5 130.828 69.1716 131.5 70 131.5H140C140.828 131.5 141.5 130.828 141.5 130V73C141.5 72.1716 140.828 71.5 140 71.5Z" stroke="#858585" stroke-width="3"/>
<path d="M70.1133 120.253L87.4863 102.49L102.039 117.372L122.918 96.0178L131.55 104.846L140.326 113.821" stroke="#858585" stroke-width="3" stroke-linecap="round" stroke-linejoin="round"/>
<path d="M102.5 96.5C105.814 96.5 108.5 93.8137 108.5 90.5C108.5 87.1863 105.814 84.5 102.5 84.5C99.1863 84.5 96.5 87.1863 96.5 90.5C96.5 93.8137 99.1863 96.5 102.5 96.5Z" stroke="#858585" stroke-width="3"/>
</svg>