<svg width="185" height="85" viewBox="0 0 185 85" fill="none" xmlns="http://www.w3.org/2000/svg">
    <g filter="url(#filter0_d_7_288)">
        <path
            d="M171.626 26.1339C171.638 27.2106 171.523 27.9299 171.414 28.4124C171.183 29.0106 170.942 29.3805 170.707 29.6198C170.349 29.8605 169.99 29.987 169.63 29.9911C169.146 29.9967 168.671 30.0021 168.186 29.8853C166.62 29.7809 164.815 29.565 162.642 29.3533L107.369 21.4945C104.958 21.2855 102.556 21.1907 100.382 20.9791C98.0952 20.8829 96.1687 20.7908 94.4811 20.8101C89.9098 20.8626 87.0316 21.3769 85.7154 22.3465C84.2859 23.4398 83.5829 25.0061 83.6062 27.0454C83.6172 27.9998 83.863 28.7149 84.3519 29.1906C84.7206 29.9043 85.447 30.3773 86.6554 30.7224C87.6194 31.1927 89.1896 31.6479 91.119 31.9929C93.0497 32.4521 95.4623 32.7834 98.3516 33.2316C103.531 34.0125 107.875 34.9172 111.502 36.0748C114.884 37.3495 117.794 38.8744 119.978 40.7665C122.048 42.66 123.641 45.0402 124.631 47.7782C125.507 50.6399 126.029 53.9951 126.073 57.829C126.126 62.3807 125.449 66.2228 124.044 69.4696C122.638 72.6022 120.505 75.2617 117.875 77.4457C115.128 79.3944 111.779 80.991 107.94 81.9896C103.976 82.8753 99.5333 83.4076 94.7244 83.4627C92.5616 83.4875 90.3893 83.3901 87.9862 83.1811C85.4603 82.9734 83.0476 82.6421 80.6363 82.425C78.2236 82.0938 28.3916 77.8274 26.349 77.6142C24.1807 77.1578 22.2528 76.9433 20.8001 76.7234C19.5931 76.5006 18.7451 76.1514 18.143 75.7993C17.4165 75.3263 17.1652 74.1299 17.258 72.2198L17.5044 62.2721C17.4756 59.7597 18.5446 58.6624 20.5955 58.8836C22.0387 58.9894 23.8519 59.2052 26.0174 59.417C28.1829 59.6287 77.8988 63.774 80.302 63.9912C82.4661 64.0888 84.7531 64.1768 86.9269 64.3966C89.091 64.4941 90.9028 64.5876 92.4594 64.5697C97.5141 64.5118 100.876 63.9919 102.668 63.131C104.345 62.1573 105.164 60.7039 105.139 58.5504C105.13 57.7102 104.884 56.9951 104.63 56.2801C104.264 55.8029 103.659 55.2143 102.81 54.7427C101.846 54.2724 100.636 53.8131 98.9428 53.3512C97.2511 53.0116 94.9599 52.5566 92.3084 52.1138C87.2455 51.4539 82.786 50.5424 79.1595 49.3929C75.4197 48.3589 72.3966 46.9577 69.9661 45.0684C67.537 43.3014 65.7086 41.0463 64.5942 38.1792C63.3583 35.4359 62.7204 31.9677 62.6723 27.775C62.6201 23.2233 63.2971 19.3811 64.9475 16.1234C66.4765 12.9894 68.6091 10.3298 71.4763 8.14313C74.1004 6.19585 77.3349 4.60053 81.0514 3.60339C84.6533 2.60757 88.6129 2.08082 92.7008 2.03394C94.7489 2.01045 97.036 2.1066 99.6848 2.31281C102.096 2.52175 104.623 2.85173 107.149 3.0675L162.787 11.2811C164.955 11.7376 166.883 11.9521 168.327 12.1721C169.297 12.3976 170.135 12.6327 170.862 13.0976C171.35 13.5733 171.603 14.8839 171.625 16.8008L171.609 26.1422L171.626 26.1339Z"
            fill="#FF7575" />
        <path
            d="M165.932 4.74296C167.134 3.83177 168.04 3.52768 168.885 3.64036C169.608 3.84418 170.401 4.38169 171.316 5.57862L182.937 20.7992C183.76 21.8748 184.157 22.8982 184.166 23.6486C184.053 24.4902 183.513 25.2796 182.31 26.1908L166.901 37.8544C165.699 38.7656 164.671 39.1608 163.948 38.957C163.103 38.8443 162.34 38.0943 161.517 37.0187L165.94 4.73471L165.932 4.74296Z"
            fill="#FF7575" />
        <path
            d="M20.4517 83.4987C19.2745 84.4422 18.377 84.7789 17.5238 84.6826C16.7925 84.4952 15.9836 83.9823 15.0361 82.8102L2.98506 67.9291C2.12909 66.8783 1.69959 65.8635 1.6746 65.1132C1.76318 64.2637 2.27841 63.4665 3.46383 62.5228L18.532 50.4227C19.7092 49.4791 20.7203 49.0515 21.4517 49.2389C22.3048 49.327 23.0833 50.0523 23.9393 51.1112L20.4518 83.5069L20.4517 83.4987Z"
            fill="#FF7575" />
    </g>
    <defs>
        <filter id="filter0_d_7_288" x="-2.32538" y="2.03046" width="190.491" height="90.668"
            filterUnits="userSpaceOnUse" color-interpolation-filters="sRGB">
            <feFlood flood-opacity="0" result="BackgroundImageFix" />
            <feColorMatrix in="SourceAlpha" type="matrix" values="0 0 0 0 0 0 0 0 0 0 0 0 0 0 0 0 0 0 127 0"
                result="hardAlpha" />
            <feOffset dy="4" />
            <feGaussianBlur stdDeviation="2" />
            <feComposite in2="hardAlpha" operator="out" />
            <feColorMatrix type="matrix" values="0 0 0 0 0 0 0 0 0 0 0 0 0 0 0 0 0 0 0.25 0" />
            <feBlend mode="normal" in2="BackgroundImageFix" result="effect1_dropShadow_7_288" />
            <feBlend mode="normal" in="SourceGraphic" in2="effect1_dropShadow_7_288" result="shape" />
        </filter>
    </defs>
</svg>