<svg width="193" height="79" viewBox="0 0 193 79" fill="none" xmlns="http://www.w3.org/2000/svg">
    <path
        d="M8.10635 12.9479C8.8042 12.5758 9.55073 12.2523 10.3865 11.9288C11.0397 11.6984 11.7822 11.4638 12.6221 11.1848C13.4132 10.9988 14.2044 10.8613 14.9509 10.8613C16.9065 10.8613 18.6755 11.1403 20.2131 11.6498C21.7021 12.2079 22.9153 13.0409 23.9377 14.2499C24.8668 15.4549 25.6133 17.0805 26.1245 19.0295C26.5911 21.0231 26.8711 23.4857 26.8711 26.3607C26.8711 29.6078 26.5911 32.2564 26.0312 34.2944C25.4713 36.3365 24.5868 38.0065 23.4711 39.2115C22.3067 40.4166 20.8623 41.2536 19.1867 41.7186C17.4623 42.1836 15.4621 42.4141 13.1333 42.4141C12.5734 42.4141 11.9688 42.3656 11.4089 42.3656C10.8044 42.2726 10.2445 42.2281 9.77794 42.1796L8.1023 41.9006V53.1784C8.1023 53.6434 8.00898 53.9224 7.82235 54.1085C7.63572 54.2459 7.31114 54.339 6.88918 54.339H1.21311C0.746531 54.339 0.466582 54.2459 0.279949 54.1085C0.0933164 53.9224 0 53.6434 0 53.1784V12.7133C0 12.2483 0.0933164 11.9693 0.279949 11.7833C0.466582 11.6458 0.746531 11.5528 1.21311 11.5528H6.89324C7.31114 11.5528 7.63977 11.6458 7.82641 11.7833C8.01304 11.9693 8.10635 12.2483 8.10635 12.7133V12.9438V12.9479ZM13.3686 18.2855C12.8087 18.2855 12.2528 18.334 11.693 18.423C11.0397 18.5605 10.4839 18.702 9.96863 18.8395L8.10635 19.3975V34.8039C8.61757 34.8525 9.12878 34.8969 9.68868 34.9414C10.1066 34.9899 10.5732 35.0344 11.1331 35.083H12.5287C13.7378 35.083 14.7156 34.8969 15.5554 34.6179C16.302 34.2944 16.9511 33.8294 17.4177 33.0854C17.8356 32.4343 18.1642 31.5083 18.3468 30.3923C18.5334 29.3248 18.6268 27.9782 18.6268 26.3567C18.6268 24.8727 18.4888 23.5746 18.2535 22.5031C17.9735 21.4841 17.649 20.6955 17.2311 20.0445C16.7645 19.442 16.2046 18.977 15.5554 18.698C14.9022 18.4189 14.1597 18.2815 13.3686 18.2815V18.2855Z"
        fill="white" />
    <path
        d="M30.1047 8.26124C29.6381 8.26124 29.3582 8.21676 29.1756 8.03075C28.9889 7.89326 28.8956 7.56572 28.8956 7.10474V1.16054C28.8956 0.695513 28.9889 0.416499 29.1756 0.23049C29.3622 0.0930046 29.6422 0 30.1047 0H36.0201C36.438 0 36.7667 0.0930046 36.9492 0.23049C37.1359 0.416499 37.2292 0.695513 37.2292 1.16054V7.1007C37.2292 7.56572 37.1359 7.88922 36.9492 8.0267C36.7626 8.21271 36.438 8.25719 36.0201 8.25719H30.1047V8.26124ZM30.1047 41.6742C29.6381 41.6742 29.3582 41.5812 29.1756 41.4437C28.9889 41.2577 28.8956 40.9786 28.8956 40.5177V13.3199C28.8956 12.8549 28.9889 12.5758 29.1756 12.3939C29.3622 12.2564 29.6422 12.1634 30.1047 12.1634H36.0201C36.438 12.1634 36.7667 12.2564 36.9492 12.3939C37.1359 12.5799 37.2292 12.8589 37.2292 13.3199V40.5136C37.2292 40.9786 37.1359 41.2577 36.9492 41.4396C36.7626 41.5771 36.438 41.6701 36.0201 41.6701H30.1047V41.6742Z"
        fill="white" />
    <path
        d="M52.1598 10.8573C52.7644 10.8573 53.4622 10.9058 54.2534 10.9503C54.9999 11.0433 55.7911 11.1363 56.6268 11.2293C57.3734 11.3223 58.1159 11.4598 58.8624 11.5528C59.5156 11.6903 60.1201 11.7833 60.6313 11.8763C61.0046 11.9693 61.2845 12.0623 61.5158 12.2483C61.7024 12.4343 61.7958 12.8508 61.7958 13.4533L61.6578 17.7234C61.6132 18.6535 61.1912 19.0215 60.4001 18.9284C59.5602 18.8799 58.5824 18.791 57.4667 18.698C56.2576 18.605 55.2798 18.5605 54.4887 18.5605C52.9997 18.5605 51.8352 18.698 50.9954 18.9325C50.0663 19.2115 49.3644 19.6765 48.9019 20.279C48.342 20.9301 48.0174 21.7186 47.8794 22.6931C47.6928 23.7162 47.5995 24.9212 47.5995 26.3122C47.5995 27.9378 47.6928 29.2803 47.8794 30.3033C48.0661 31.4153 48.3907 32.2524 48.9506 32.9034C49.4171 33.5544 50.115 34.0154 51.0481 34.2944C51.9326 34.5249 53.097 34.6664 54.5861 34.6664C54.9593 34.6664 55.4259 34.6179 55.9817 34.6179C56.4483 34.5694 57.0082 34.5249 57.5641 34.5249C58.0753 34.4804 58.5865 34.4319 59.1464 34.4319C59.6576 34.3389 60.1242 34.2944 60.4974 34.2944C60.822 34.2459 61.102 34.2944 61.3373 34.3874C61.5239 34.4804 61.6172 34.8525 61.6619 35.548L61.7998 39.7696C61.7998 40.3276 61.7065 40.7441 61.5199 40.9746C61.2886 41.1606 61.0087 41.2536 60.6354 41.3466C60.0755 41.4396 59.471 41.5326 58.7731 41.6701C58.0266 41.7631 57.2354 41.9006 56.493 42.0421C55.6531 42.1351 54.8619 42.2281 54.1195 42.3211C53.2796 42.3656 52.5818 42.4141 51.9773 42.4141C49.6971 42.4141 47.7861 42.0906 46.2038 41.4841C44.5728 40.8331 43.2704 39.9071 42.2926 38.605C41.2662 37.307 40.5237 35.6369 40.0571 33.5949C39.5905 31.6013 39.3593 29.1873 39.3593 26.3082C39.3593 23.6151 39.5905 21.298 40.1058 19.349C40.5724 17.4444 41.3148 15.8674 42.3859 14.5694C43.4084 13.3158 44.7148 12.3898 46.3418 11.7388C47.9241 11.1808 49.8797 10.8573 52.1598 10.8573Z"
        fill="white" />
    <path
        d="M118.37 36.3325C119.348 36.3325 120.045 36.47 120.419 36.749C120.743 37.121 121.023 37.7235 121.21 38.5605L125.308 58.6091H126.797L130.241 37.214C130.335 36.6115 130.473 36.195 130.753 36.009C130.984 35.8715 131.45 35.7785 132.148 35.7785H136.757C137.41 35.7785 137.828 35.916 138.015 36.102C138.202 36.381 138.202 36.7975 138.108 37.4485L133.264 63.6677C133.077 64.5048 132.846 65.1073 132.473 65.4308C132.1 65.7098 131.402 65.8958 130.424 65.8958H122.415C121.392 65.8958 120.739 65.7098 120.366 65.4308C119.993 65.1073 119.713 64.5048 119.575 63.6677L116.548 47.4243L113.521 63.6677C113.335 64.5048 113.104 65.1073 112.73 65.4308C112.357 65.7098 111.659 65.8958 110.681 65.8958H102.672C101.65 65.8958 100.997 65.7098 100.623 65.4308C100.25 65.1073 99.9703 64.5048 99.8323 63.6677L94.988 37.4485C94.85 36.7975 94.8947 36.381 95.0813 36.102C95.2679 35.916 95.6858 35.7785 96.339 35.7785H100.948C101.601 35.7785 102.064 35.8715 102.344 36.009C102.575 36.195 102.762 36.6115 102.855 37.214L106.3 58.6091H107.789L111.886 38.5605C112.073 37.7235 112.353 37.121 112.726 36.7975C113.051 36.5185 113.704 36.3325 114.726 36.3325H118.358H118.37Z"
        fill="white" />
    <path
        d="M162.553 56.66C162.553 57.586 162.598 58.237 162.74 58.6535C162.833 59.0255 163.113 59.349 163.58 59.535C163.673 59.5795 163.86 59.6725 164.14 59.8585C164.326 59.9515 164.464 60.275 164.464 60.8331V65.0547C164.464 65.3782 164.371 65.6572 164.277 65.8917C164.14 66.0777 163.998 66.2152 163.811 66.3567C163.624 66.4497 163.438 66.5427 163.251 66.5872C163.02 66.5872 162.833 66.6317 162.74 66.6317C161.713 66.5872 160.878 66.5387 160.224 66.4457C159.478 66.3082 158.873 66.1667 158.362 66.0292C157.802 65.8432 157.34 65.6127 156.918 65.3782C156.451 65.0991 156.033 64.8687 155.66 64.5896C154.637 64.9617 153.611 65.3337 152.589 65.6572C151.659 65.8877 150.678 66.1222 149.611 66.3527C148.495 66.5387 147.424 66.6762 146.397 66.6762C143.371 66.6762 141.135 65.7461 139.646 63.9831C138.108 62.1715 137.366 59.7615 137.366 56.7449C137.366 55.0749 137.597 53.6353 138.064 52.4748C138.53 51.3628 139.179 50.4813 140.113 49.7372C140.997 49.0862 142.113 48.5322 143.419 48.1602C144.722 47.8367 146.215 47.6022 147.89 47.4647L154.455 47.0482V45.5641C154.455 44.7756 154.175 44.1246 153.615 43.5706C153.011 43.1056 152.264 42.8266 151.428 42.8266C150.637 42.8266 149.797 42.871 148.913 42.871C147.98 42.9196 147.05 42.9641 146.166 42.9641C145.237 43.0571 144.397 43.1015 143.557 43.1015C142.717 43.1945 141.975 43.239 141.415 43.239H140.668C140.437 43.239 140.251 43.1905 140.109 43.053C139.922 42.96 139.784 42.7295 139.691 42.4505C139.597 42.22 139.553 41.848 139.553 41.29L139.459 38.3179C139.411 37.5294 139.553 36.9713 139.877 36.6923C140.157 36.4133 140.53 36.2758 141.042 36.1828C141.695 36.0898 142.437 35.9968 143.371 35.8593C144.255 35.7663 145.188 35.6288 146.211 35.4873L149.189 35.2083C150.166 35.1638 151.051 35.1153 151.891 35.1153C153.566 35.1153 155.104 35.3013 156.455 35.6248C157.758 35.9968 158.829 36.5993 159.762 37.3878C160.646 38.2249 161.344 39.2924 161.855 40.5904C162.322 41.937 162.553 43.5585 162.553 45.463V56.6479V56.66ZM148.913 53.4574C147.842 53.5504 147.002 53.7809 146.446 54.2014C145.793 54.6665 145.517 55.455 145.517 56.5225C145.517 58.6576 146.357 59.7251 148.032 59.7251C148.637 59.7251 149.335 59.6766 150.081 59.6321C150.828 59.5391 151.526 59.4016 152.175 59.3086C152.921 59.1711 153.712 59.0296 154.455 58.8436V53.2269L148.913 53.4574Z"
        fill="white" />
    <path
        d="M174.019 37.214C174.717 36.8419 175.463 36.5185 176.299 36.195C176.952 35.9645 177.695 35.7299 178.535 35.4509C179.326 35.2649 180.117 35.1274 180.863 35.1274C182.819 35.1274 184.588 35.4064 186.126 35.9159C187.615 36.474 188.828 37.307 189.85 38.516C190.779 39.721 191.526 41.3466 192.037 43.2957C192.504 45.2892 192.784 47.7518 192.784 50.6268C192.784 53.8739 192.504 56.5225 191.944 58.5605C191.384 60.6026 190.499 62.2726 189.384 63.4777C188.219 64.6827 186.775 65.5197 185.099 65.9847C183.375 66.4498 181.375 66.6803 179.046 66.6803C178.486 66.6803 177.881 66.6317 177.321 66.6317C176.717 66.5387 176.157 66.4942 175.69 66.4457L174.015 66.1667V77.4445C174.015 77.9096 173.921 78.1886 173.735 78.3746C173.548 78.5121 173.224 78.6051 172.806 78.6051H167.126C166.659 78.6051 166.379 78.5121 166.196 78.3746C166.01 78.1886 165.917 77.9096 165.917 77.4445V36.9794C165.917 36.5144 166.01 36.2354 166.196 36.0494C166.383 35.9119 166.663 35.8189 167.126 35.8189H172.806C173.224 35.8189 173.552 35.9119 173.735 36.0494C173.921 36.2354 174.015 36.5144 174.015 36.9794V37.2099L174.019 37.214ZM179.281 42.5516C178.721 42.5516 178.165 42.6001 177.605 42.6891C176.952 42.8266 176.396 42.9681 175.881 43.1056L174.019 43.6636V59.0701C174.53 59.1186 175.041 59.1631 175.601 59.2075C176.019 59.2561 176.486 59.3005 177.045 59.3491H178.441C179.65 59.3491 180.628 59.1631 181.468 58.884C182.214 58.5605 182.864 58.0955 183.33 57.3515C183.748 56.7005 184.077 55.7745 184.259 54.6584C184.446 53.5909 184.539 52.2443 184.539 50.6228C184.539 49.1388 184.401 47.8408 184.166 46.7692C183.886 45.7502 183.561 44.9617 183.144 44.3106C182.677 43.7081 182.117 43.2431 181.468 42.9641C180.815 42.6851 180.072 42.5476 179.281 42.5476V42.5516Z"
        fill="white" />
    <path
        d="M116.759 29.3005C116.759 29.8342 116.698 30.1901 116.641 30.4287C116.524 30.7239 116.402 30.9058 116.284 31.0231C116.106 31.1404 115.927 31.201 115.749 31.201C115.51 31.201 115.274 31.201 115.035 31.1404C114.26 31.0797 113.367 30.9624 112.292 30.8452L84.9667 26.6357C83.7738 26.5184 82.5851 26.4578 81.5099 26.3405C80.3779 26.2798 79.4245 26.2232 78.5887 26.2232C76.3247 26.2232 74.8966 26.4618 74.2393 26.9349C73.5252 27.4687 73.1682 28.241 73.1682 29.252C73.1682 29.7251 73.2859 30.0809 73.5253 30.3195C73.7038 30.6753 74.0608 30.9139 74.6572 31.0918C75.1319 31.3304 75.9068 31.5649 76.8603 31.7469C77.8137 31.9855 79.0066 32.1634 80.4347 32.402C82.9948 32.8185 85.1411 33.2916 86.9304 33.886C88.5979 34.537 90.0301 35.3094 91.1012 36.2596C92.1155 37.2099 92.8904 38.3988 93.3651 39.7615C93.783 41.1848 94.0224 42.8508 94.0224 44.7514C94.0224 47.0077 93.6654 48.9083 92.9513 50.5096C92.2372 52.0543 91.1661 53.3604 89.8516 54.4279C88.4802 55.3782 86.8127 56.1505 84.9058 56.6236C82.938 57.0401 80.735 57.2787 78.3534 57.2787C77.2822 57.2787 76.2071 57.218 75.0183 57.1008C73.7687 56.9835 72.5759 56.8056 71.383 56.6843C70.1902 56.5063 45.5384 54.1084 44.5282 53.9912C43.4571 53.7526 42.5036 53.6353 41.7855 53.5181C41.1891 53.4008 40.7712 53.2229 40.475 53.045C40.118 52.8064 40.0003 52.212 40.0571 51.2657L40.2356 46.3365C40.2356 45.091 40.7712 44.5532 41.7855 44.6745C42.4996 44.7352 43.3962 44.8525 44.4673 44.9697C45.5384 45.087 70.1334 47.4242 71.3222 47.5456C72.3933 47.6062 73.5252 47.6628 74.6004 47.7841C75.6715 47.8448 76.5682 47.9014 77.3391 47.9014C79.8424 47.9014 81.5099 47.6628 82.4025 47.2463C83.2383 46.7732 83.6521 46.0575 83.6521 44.99C83.6521 44.5735 83.5344 44.2176 83.4127 43.8618C83.2342 43.6232 82.938 43.328 82.5201 43.0894C82.0454 42.8508 81.449 42.6163 80.6132 42.3777C79.7774 42.1998 78.6455 41.9612 77.335 41.7267C74.8317 41.3709 72.6286 40.8937 70.8394 40.3033C68.9933 39.7696 67.5043 39.0579 66.3115 38.1076C65.1187 37.218 64.2261 36.0898 63.6905 34.6624C63.0941 33.2956 62.7979 31.573 62.7979 29.4946C62.7979 27.2382 63.155 25.3377 63.9907 23.7323C64.7657 22.1876 65.8368 20.8815 67.269 19.814C68.5795 18.8637 70.1902 18.0914 72.0362 17.6183C73.8255 17.1452 75.7892 16.9066 77.8137 16.9066C78.8281 16.9066 79.96 16.9673 81.2705 17.0845C82.4633 17.2018 83.713 17.3797 84.9626 17.501L112.467 21.8884C113.538 22.127 114.491 22.2443 115.205 22.3615C115.684 22.4788 116.098 22.6001 116.455 22.8346C116.694 23.0732 116.812 23.7242 116.812 24.6745L116.751 29.3045L116.759 29.3005Z"
        fill="white" />
    <path
        d="M114.061 18.6656C114.662 18.2208 115.112 18.0752 115.53 18.1359C115.887 18.241 116.276 18.512 116.723 19.1104L122.391 26.7206C122.792 27.2584 122.983 27.7679 122.983 28.14C122.922 28.5564 122.65 28.9446 122.05 29.3894L114.353 35.083C113.753 35.5278 113.242 35.7178 112.884 35.6127C112.467 35.552 112.093 35.176 111.692 34.6381L114.065 18.6616L114.061 18.6656Z"
        fill="white" />
    <path
        d="M41.5704 56.8703C40.9821 57.3313 40.5358 57.4931 40.1139 57.4405C39.7528 57.3434 39.3552 57.0846 38.8926 56.4983L33.0096 49.0499C32.5917 48.5242 32.3848 48.0187 32.3767 47.6467C32.4254 47.2262 32.6851 46.8339 33.2774 46.3729L40.8076 40.4611C41.3959 40.0001 41.899 39.7939 42.2601 39.8909C42.6821 39.9394 43.0635 40.3034 43.4814 40.8331L41.5704 56.8703Z"
        fill="white" />
</svg>